<svg xmlns="http://www.w3.org/2000/svg" width="128" height="128" viewBox="0 0 128 128">
  <title>Rose Agent</title>
  <desc>A rose formed from connected UML class cards on a dark canvas.</desc>
  <rect x="4" y="4" width="120" height="120" rx="26" fill="#172033"/>
  <path d="M64 77v31m0-12c-17 0-25-8-25-19 15 0 23 6 25 19m0-6c15 0 23-7 23-18-14 0-22 7-23 18" fill="#64b892" stroke="#64b892" stroke-width="4" stroke-linecap="round" stroke-linejoin="round"/>
  <path d="M45 45h38M45 45l19 24 19-24M64 28v41" fill="none" stroke="#f1a2ae" stroke-width="3"/>
  <g fill="#d9486a" stroke="#ffb8c6" stroke-width="2">
    <rect x="51" y="17" width="26" height="28" rx="6"/>
    <rect x="25" y="36" width="29" height="30" rx="6" transform="rotate(-15 39.5 51)"/>
    <rect x="74" y="36" width="29" height="30" rx="6" transform="rotate(15 88.5 51)"/>
    <rect x="49" y="51" width="30" height="31" rx="7"/>
  </g>
  <g fill="none" stroke="#ffe5eb" stroke-width="2" stroke-linecap="round">
    <path d="M56 27h16m-16 7h9M32 46l16-4m-14 11 11-3M80 42l16 4m-15 3 11 3M55 62h18m-18 8h11"/>
  </g>
</svg>
